<?xml version="1.0" encoding="UTF-8"?>
<svg id="katman_1" data-name="katman 1" xmlns="http://www.w3.org/2000/svg" xmlns:xlink="http://www.w3.org/1999/xlink" viewBox="0 0 831.78 301.73">
  <defs>
    <style>
      .cls-1 {
        fill: url(#Adsız_degrade_7-7);
      }

      .cls-2 {
        fill: url(#Adsız_degrade_7-5);
      }

      .cls-3 {
        fill: url(#Adsız_degrade_7-4);
      }

      .cls-4 {
        fill: url(#Adsız_degrade_7);
      }

      .cls-5 {
        fill: url(#Adsız_degrade_7-2);
      }

      .cls-6 {
        fill: url(#Adsız_degrade_7-3);
      }

      .cls-7 {
        fill: url(#Adsız_degrade_7-6);
      }
    </style>
    <linearGradient id="Adsız_degrade_7" data-name="Adsız degrade 7" x1="611.9" y1="21.84" x2="611.9" y2="321.3" gradientUnits="userSpaceOnUse">
      <stop offset="0" stop-color="#000"/>
      <stop offset="1" stop-color="#000"/>
    </linearGradient>
    <linearGradient id="Adsız_degrade_7-2" data-name="Adsız degrade 7" x1="82.05" y1="21.84" x2="82.05" y2="321.3" xlink:href="#Adsız_degrade_7"/>
    <linearGradient id="Adsız_degrade_7-3" data-name="Adsız degrade 7" x1="258.59" y1="21.84" x2="258.59" y2="321.3" xlink:href="#Adsız_degrade_7"/>
    <linearGradient id="Adsız_degrade_7-4" data-name="Adsız degrade 7" x1="409.79" y1="21.84" x2="409.79" y2="321.3" xlink:href="#Adsız_degrade_7"/>
    <linearGradient id="Adsız_degrade_7-5" data-name="Adsız degrade 7" x1="519.38" y1="21.84" x2="519.38" y2="321.3" xlink:href="#Adsız_degrade_7"/>
    <linearGradient id="Adsız_degrade_7-6" data-name="Adsız degrade 7" x1="611.9" y1="21.84" x2="611.9" y2="321.3" xlink:href="#Adsız_degrade_7"/>
    <linearGradient id="Adsız_degrade_7-7" data-name="Adsız degrade 7" x1="742.5" y1="21.84" x2="742.5" y2="321.3" xlink:href="#Adsız_degrade_7"/>
  </defs>
  <path class="cls-4" d="M608.83,2.16c-3.45,9.31-10.74,20.84-26.15,26.19-2.76.96-2.76,4.76,0,5.72,15.41,5.34,22.7,16.87,26.15,26.19,1.07,2.89,5.06,2.89,6.13,0,3.45-9.31,10.74-20.84,26.15-26.19,2.76-.96,2.76-4.76,0-5.72-15.41-5.34-22.7-16.87-26.15-26.19-1.07-2.89-5.06-2.89-6.13,0Z"/>
  <g>
    <path class="cls-5" d="M123.92,74.48c-12.45-6.6-26.41-9.9-41.87-9.9s-29.43,3.3-41.87,9.9c-12.45,6.6-22.26,16.08-29.43,28.43C3.58,115.27,0,129.56,0,145.77s3.54,30.75,10.61,43.01c7.07,12.26,16.79,21.69,29.14,28.29,12.35,6.6,26.26,9.9,41.73,9.9s29.47-3.3,42.01-9.9c12.54-6.6,22.45-16.08,29.71-28.43,7.26-12.35,10.89-26.64,10.89-42.87s-3.58-30.51-10.75-42.86c-7.17-12.35-16.98-21.83-29.43-28.43ZM128.74,150.34c-24.62,8.54-36.28,26.97-41.79,41.85-1.71,4.61-8.09,4.61-9.8,0-5.51-14.88-17.17-33.31-41.79-41.85-4.42-1.53-4.42-7.61,0-9.14,24.62-8.54,36.28-26.97,41.79-41.85,1.71-4.61,8.09-4.61,9.8,0,5.51,14.88,17.17,33.31,41.79,41.85,4.42,1.53,4.42,7.61,0,9.14Z"/>
    <path class="cls-6" d="M288.78,155.04c0,10.53-2.73,18.72-8.18,24.54-5.46,5.83-12.88,8.74-22.29,8.74s-16.55-2.91-22-8.74c-5.46-5.83-8.18-14.01-8.18-24.54v-85.47h-47.95v91.96c0,13.73,2.54,25.67,7.62,35.82s12.22,17.91,21.44,23.27c9.21,5.36,19.84,8.04,31.88,8.04,10.15,0,19.41-2.12,27.78-6.35,8.36-4.23,15-9.82,19.89-16.78v21.44h48.24V69.57h-48.24v85.47Z"/>
    <path class="cls-3" d="M430.95,182.97c-2.26-2.07-3.39-5.45-3.39-10.15v-63.19h31.59v-40.06h-31.59V31.21h-48.24v38.36h-19.18v40.06h19.18v62.62c0,19.37,4.89,33.33,14.67,41.89,9.78,8.56,23.41,12.83,40.9,12.83h24.54v-40.9h-17.21c-5.27,0-9.03-1.03-11.28-3.1Z"/>
    <path class="cls-2" d="M539.26,68.16c0-8.27,1.88-14.01,5.64-17.21,3.76-3.2,10.25-4.51,19.47-3.95V6.1c-1.69-.18-4.33-.28-7.9-.28-21.44,0-37.71,5.03-48.8,15.09-11.1,10.06-16.64,24.78-16.64,44.15v4.51h-17.49v40.06h17.49v117.35h48.24v-117.35h25.95v-40.06h-25.95v-1.41Z"/>
    <rect class="cls-7" x="587.78" y="69.57" width="48.24" height="157.4"/>
    <polygon class="cls-1" points="779.59 69.57 743.49 168.02 707.1 69.57 653.22 69.57 717.25 221.62 681.15 301.73 733.05 301.73 831.78 69.57 779.59 69.57"/>
  </g>
</svg>